<svg id="Слой_1" data-name="Слой 1" xmlns="http://www.w3.org/2000/svg" viewBox="0 0 50 75"><defs><style>.cls-1{fill:#fff;}</style></defs><title>Монтажная область 1</title><path class="cls-1" d="M40.77,11.19h0V8.85a1,1,0,0,0-2-.27,1.24,1.24,0,0,0,0,.27v2.36H34.86V8.85a1,1,0,0,0-2-.26,1.15,1.15,0,0,0,0,.26v2.36H29V8.85a1,1,0,0,0-2-.27,1.24,1.24,0,0,0,0,.27v2.36H22.88V8.85a1,1,0,0,0-2-.26,1.15,1.15,0,0,0,0,.26v2.36H17V8.85a1,1,0,0,0-2-.26,1.15,1.15,0,0,0,0,.26v2.36h-3.9V8.85a1,1,0,0,0-.8-1,1,1,0,0,0-1.2.74,1.15,1.15,0,0,0,0,.26v2.36H7.46A2.82,2.82,0,0,0,4.63,14V64.65A2.56,2.56,0,0,0,7.17,67.2H42.83a2.56,2.56,0,0,0,2.54-2.55V14.34a3.15,3.15,0,0,0-3.13-3.15ZM37.72,61.63h0a20.44,20.44,0,0,0,5.62-4.28h0v3.82a.47.47,0,0,1-.46.46H37.72Zm-4.25-.55a10.1,10.1,0,0,0,1.81-4.15,1.85,1.85,0,0,1,1.79-1.47h5.21a18.25,18.25,0,0,1-8.8,5.62ZM7.82,13.21H9.05v2.47a1.06,1.06,0,0,0,1,1.06,1,1,0,0,0,1-1V13.22H15v2.47a1,1,0,0,0,.94,1.06H16a1,1,0,0,0,1-1V13.22h3.88v2.47a1.06,1.06,0,0,0,1,1.06,1,1,0,0,0,1-1V13.22h4.05v2.47a1.06,1.06,0,0,0,1,1.06,1,1,0,0,0,1-1V13.22h3.88v2.47a1.06,1.06,0,0,0,1,1.06,1,1,0,0,0,1-1V13.22h3.88v2.47a1.06,1.06,0,0,0,1,1.06,1,1,0,0,0,1-1V13.22H42.1a1.19,1.19,0,0,1,1.17,1.17V53.44H36.12a2.7,2.7,0,0,0-2.68,2.31c-.5,3.51-2.15,5-3.29,5.53a3.45,3.45,0,0,1-1.51.35H7.81a1.16,1.16,0,0,1-1.16-1.15V14.38A1.19,1.19,0,0,1,7.82,13.21ZM6.65,64.41h0a.76.76,0,0,1,.76-.76H42.59a.76.76,0,0,1,.76.76h0a.76.76,0,0,1-.76.76H7.41a.76.76,0,0,1-.76-.76Z"/><path class="cls-1" d="M20.86,20.79H39.08a1,1,0,0,1,1,1h0a1,1,0,0,1-1,1H20.86a1,1,0,0,1-1-1h0A1,1,0,0,1,20.86,20.79Z"/><path class="cls-1" d="M10.9,20.79h4.39a1,1,0,0,1,1,1h0a1,1,0,0,1-1,1H10.9a1,1,0,0,1-1-1h0A1,1,0,0,1,10.9,20.79Z"/><path class="cls-1" d="M33.17,28.55h5.91a1,1,0,0,1,1,1h0a1,1,0,0,1-1,1H33.17a1,1,0,0,1-1-1h0A1,1,0,0,1,33.17,28.55Z"/><path class="cls-1" d="M10.9,28.55H26.59a1,1,0,0,1,1,1h0a1,1,0,0,1-1,1H10.9a1,1,0,0,1-1-1h0A1,1,0,0,1,10.9,28.55Z"/><rect class="cls-1" x="23.56" y="36.48" width="16.53" height="2.02" rx="1.01"/><rect class="cls-1" x="9.89" y="36.48" width="10.46" height="2.02" rx="1.01"/><rect class="cls-1" x="9.89" y="51.84" width="10.46" height="2.02" rx="1.01"/><rect class="cls-1" x="34.52" y="44.24" width="5.57" height="2.02" rx="1.01"/><rect class="cls-1" x="17.99" y="44.24" width="14.17" height="2.02" rx="1.01"/><rect class="cls-1" x="9.89" y="44.24" width="4.89" height="2.02" rx="1.01"/></svg>