<?xml version="1.0" encoding="UTF-8"?>
<!DOCTYPE svg PUBLIC "-//W3C//DTD SVG 1.1//EN" "http://www.w3.org/Graphics/SVG/1.1/DTD/svg11.dtd">
<!-- Creator: CorelDRAW 2018 (64-Bit) -->
<svg xmlns="http://www.w3.org/2000/svg" xml:space="preserve" width="210mm" height="297mm" version="1.1" style="shape-rendering:geometricPrecision; text-rendering:geometricPrecision; image-rendering:optimizeQuality; fill-rule:evenodd; clip-rule:evenodd"
viewBox="0 0 21000 29700"
 xmlns:xlink="http://www.w3.org/1999/xlink">
 <defs>
  <style type="text/css">
   <![CDATA[
    .str0 {stroke:#434242;stroke-width:20;stroke-miterlimit:22.9256}
    .fil0 {fill:#333344}
   ]]>
  </style>
 </defs>
 <g id="Layer_x0020_1">
  <metadata id="CorelCorpID_0Corel-Layer"/>
  <g id="_1211098312368">
   <g>
    <path class="fil0 str0" d="M10488.17 21623.27c-1135.03,0 -2276.49,-282.99 -3310.41,-865.13 -191.83,-107.97 -259.84,-351.09 -151.75,-542.92 107.97,-191.62 350.88,-260.13 542.92,-151.75 2325.59,1309.43 5269.36,903.95 7159.2,-985.56 2331.2,-2331.32 2331.2,-6124.42 0,-8455.75 -2331.32,-2331.32 -6124.63,-2331.5 -8456.16,0 -2331.2,2331.32 -2331.2,6124.42 0,8455.75 155.7,155.7 155.7,408.18 0,563.88 -155.49,155.7 -407.97,155.7 -563.67,0 -2642.1,-2642.31 -2642.1,-6941.19 0,-9583.5 2642.1,-2642.1 6941.4,-2642.1 9583.5,0 2642.1,2642.31 2642.1,6941.19 0,9583.5 -1301.48,1301.36 -3044.73,1981.48 -4803.63,1981.48z" data-original="#000000" data-old_color="#000000"/>
    <path class="fil0 str0" d="M12616.83 17495.68c-102.03,0 -203.97,-38.83 -281.83,-116.69l-4233.67 -4233.67c-155.7,-155.7 -155.7,-408.18 0,-563.88 155.7,-155.7 407.97,-155.7 563.67,0l4233.69 4233.69c155.7,155.7 155.7,408.18 0,563.88 -77.86,77.87 -179.8,116.67 -281.86,116.67z" data-original="#000000" data-old_color="#000000"/>
    <path class="fil0 str0" d="M8383.17 17495.68c-102.03,0 -203.97,-38.83 -281.83,-116.69 -155.7,-155.7 -155.7,-408.18 0,-563.88l4233.66 -4233.66c155.7,-155.7 407.97,-155.7 563.67,0 155.7,155.7 155.7,408.18 0,563.88l-4233.67 4233.68c-77.86,77.87 -179.8,116.67 -281.83,116.67z" data-original="#000000" data-old_color="#000000"/>
   </g>
  </g>
 </g>
</svg>
