<svg xmlns="http://www.w3.org/2000/svg" xmlns:xlink="http://www.w3.org/1999/xlink" viewBox="0 0 496.41 488.39"><defs><style>.cls-1{fill:url(#linear-gradient);}.cls-2{fill:url(#linear-gradient-2);}.cls-3{opacity:0.1;}.cls-4{fill:url(#linear-gradient-3);}.cls-5{fill:url(#linear-gradient-5);}.cls-6{fill:url(#linear-gradient-6);}.cls-7{fill:url(#linear-gradient-7);}.cls-8{fill:url(#linear-gradient-8);}.cls-9{fill:url(#linear-gradient-9);}</style><linearGradient id="linear-gradient" x1="298.39" y1="322.11" x2="298.39" y2="322.11" gradientUnits="userSpaceOnUse"><stop offset="0" stop-color="#db78ff"/><stop offset="1" stop-color="#7f78ff"/></linearGradient><linearGradient id="linear-gradient-2" x1="509.98" y1="356.35" x2="-12.15" y2="140.87" gradientUnits="userSpaceOnUse"><stop offset="0" stop-color="#ff8dff"/><stop offset="1" stop-color="#6c78ff"/></linearGradient><linearGradient id="linear-gradient-3" x1="184.37" y1="257.66" x2="581.36" y2="357.53" xlink:href="#linear-gradient-2"/><linearGradient id="linear-gradient-5" x1="229.27" y1="-20.31" x2="71.01" y2="162.47" xlink:href="#linear-gradient"/><linearGradient id="linear-gradient-6" x1="223.66" y1="-25.17" x2="65.4" y2="157.61" xlink:href="#linear-gradient"/><linearGradient id="linear-gradient-7" x1="174.96" y1="-67.33" x2="16.7" y2="115.45" xlink:href="#linear-gradient"/><linearGradient id="linear-gradient-8" x1="153.09" y1="-86.27" x2="-5.17" y2="96.51" xlink:href="#linear-gradient"/><linearGradient id="linear-gradient-9" x1="171.12" y1="-70.66" x2="12.86" y2="112.12" xlink:href="#linear-gradient"/></defs><title>beemloop logo</title><g id="Layer_2" data-name="Layer 2"><g id="Layer_1-2" data-name="Layer 1"><path class="cls-1" d="M298.39,322.11"/><path class="cls-2" d="M373.06,196.71h0a146,146,0,0,0-23.4-1.87H139.53a43,43,0,0,0-43,43h0a43,43,0,0,0,43,43H348.79c33.36,0,61.12,26.55,61.57,59.91a60.82,60.82,0,0,1-46.55,59.88,103.81,103.81,0,0,0,9.25-204Z"/><rect class="cls-3" x="288.91" y="194.83" width="20.92" height="86.05"/><path class="cls-4" d="M496.41,341.62c0,81-65.88,146.81-146.84,146.77-80.7,0-146.72-67.35-146.72-148V123.87a43,43,0,0,1,43-43h0a43,43,0,0,1,43,43V340.72c0,33.53,26.8,61.4,60.33,61.62a60.55,60.55,0,0,0,14.59-1.67,103.81,103.81,0,0,0,9.25-204C442.91,208,496.41,268.66,496.41,341.62Z"/><path class="cls-1" d="M298.39,322.11"/><circle class="cls-5" cx="184.5" cy="31.41" r="31.41"/><circle class="cls-6" cx="41.54" cy="185.17" r="31.41"/><circle class="cls-7" cx="100.13" cy="19.09" r="17.86"/><circle class="cls-8" cx="38.63" cy="45.92" r="10.29"/><circle class="cls-9" cx="17.86" cy="106.35" r="17.86"/></g></g></svg>