<svg id="Слой_1" data-name="Слой 1" xmlns="http://www.w3.org/2000/svg" viewBox="0 0 50 75"><defs><style>.cls-1{fill:#fff;}</style></defs><title>Монтажная область 1</title><path class="cls-1" d="M25.38,45.2A10.18,10.18,0,0,0,35.55,35h0V18.73a10.17,10.17,0,0,0-20.33,0V35A10.17,10.17,0,0,0,25.37,45.2ZM19.06,18.35a6.37,6.37,0,0,1,12.74,0v17a6.37,6.37,0,0,1-12.74,0Z"/><path class="cls-1" d="M44.05,27.78v7.84A18.66,18.66,0,0,1,28,54.1a.69.69,0,0,0-.6.68v7.58a.76.76,0,0,0,.05.27v.12a.71.71,0,0,0,.71.71H33.9a2.1,2.1,0,0,1,1.63.88,2.72,2.72,0,0,1,.13.49,2.12,2.12,0,0,1-2.12,1.83H17A2.06,2.06,0,0,1,15,64.84a1.6,1.6,0,0,1,.15-.57h0a2.16,2.16,0,0,1,1.75-.86h5.62a.71.71,0,0,0,.71-.7v-.12a.81.81,0,0,0,.05-.27V54.73a.69.69,0,0,0-.59-.68A18.68,18.68,0,0,1,6.76,35.57V27.62a2.07,2.07,0,0,1,2.17-2,2,2,0,0,1,1.38.61s0,0,0,0a2.11,2.11,0,0,1,.24,1v8.54a14.86,14.86,0,0,0,29.72-.12V27.33a2.12,2.12,0,0,1,.25-1h0a2,2,0,0,1,1.45-.6A2.07,2.07,0,0,1,44.05,27.78Z"/><path class="cls-1" d="M44.05,27.78v7.84A18.66,18.66,0,0,1,28,54.1a.69.69,0,0,0-.6.68l0,7.56v.41a.71.71,0,0,0,.71.71H33.9a2.1,2.1,0,0,1,1.63.88,2.72,2.72,0,0,1,.13.49,2.12,2.12,0,0,1-2.12,1.83H17A2.06,2.06,0,0,1,15,64.84a1.6,1.6,0,0,1,.15-.57h0a2.16,2.16,0,0,1,1.75-.86h5.62a.71.71,0,0,0,.71-.7v-.12s0-.19,0-.28l0-7.57a.69.69,0,0,0-.59-.68A18.68,18.68,0,0,1,6.76,35.57V27.62a2.07,2.07,0,0,1,2.17-2,2,2,0,0,1,1.38.61s0,0,0,0a2.11,2.11,0,0,1,.24,1v8.54a14.86,14.86,0,0,0,29.72-.12V27.33a2.12,2.12,0,0,1,.25-1h0a2,2,0,0,1,1.45-.6A2.07,2.07,0,0,1,44.05,27.78Z"/></svg>